<svg width="512" height="512" viewBox="0 0 512 512" fill="none" xmlns="http://www.w3.org/2000/svg">
  <!-- Camera frame corners -->
  <rect x="48" y="96" width="80" height="32" rx="8" fill="#3B3B3B"/>
  <rect x="48" y="96" width="32" height="80" rx="8" fill="#3B3B3B"/>
  <rect x="384" y="96" width="80" height="32" rx="8" fill="#3B3B3B"/>
  <rect x="432" y="96" width="32" height="80" rx="8" fill="#3B3B3B"/>
  <rect x="48" y="384" width="80" height="32" rx="8" fill="#3B3B3B"/>
  <rect x="48" y="336" width="32" height="80" rx="8" fill="#3B3B3B"/>
  <rect x="384" y="384" width="80" height="32" rx="8" fill="#3B3B3B"/>
  <rect x="432" y="336" width="32" height="80" rx="8" fill="#3B3B3B"/>

  <!-- Smiley face -->
  <circle cx="256" cy="256" r="150" fill="#FFE4A8" stroke="#3B3B3B" stroke-width="16"/>
  <circle cx="216" cy="232" r="16" fill="#3B3B3B"/>
  <circle cx="296" cy="232" r="16" fill="#3B3B3B"/>
  <path d="M208 296C220 320 236 336 256 336C276 336 292 320 304 296" stroke="#3B3B3B" stroke-width="16" stroke-linecap="round" stroke-linejoin="round"/>
</svg>
